<svg width="24" height="24" viewBox="0 0 24 24" fill="none" xmlns="http://www.w3.org/2000/svg">
<path d="M23.8829 10.0301L23.922 9.9918C23.922 9.9918 23.922 9.95355 23.961 9.9153C23.961 9.87705 23.961 9.87705 24 9.8388V9.80055C24 9.7623 24 9.76229 24 9.72404V9.68579V9.64754C24 9.64754 24 9.64754 24 9.60929C23.1805 4.98087 18.0293 1.5 11.9805 1.5C5.93171 1.5 0.780488 4.98087 0 9.57104C0 9.57104 0 9.57104 0 9.60929V9.64754V9.68579C0 9.72404 0 9.72404 0 9.76229C0 9.80055 0 9.80055 0 9.8388C0 9.87705 0 9.87705 0.0390244 9.9153C0.0390244 9.95355 0.0390244 9.95355 0.0780488 9.9918C0.0780488 10.0301 0.117073 10.0301 0.117073 10.0683L0.156098 10.1066L0.195122 10.1448L0.234146 10.1831L0.273171 10.2213L0.312195 10.2596C0.312195 10.2596 0.35122 10.2978 0.390244 10.2978C0.390244 10.2978 0.429268 10.3361 0.468293 10.3361C0.468293 10.3361 0.507317 10.3361 0.546341 10.3361C0.585366 10.3361 0.585366 10.3361 0.62439 10.3361H0.663415H0.702439H3.12195V21.0847H2.49756C2.10732 21.0847 1.79512 21.3907 1.79512 21.7732C1.79512 22.1557 2.10732 22.4617 2.49756 22.4617H9.13171C9.52195 22.4617 9.83415 22.1557 9.83415 21.7732C9.83415 21.3907 9.52195 21.0847 9.13171 21.0847H8.54634V10.3743H15.4927V21.123H14.8293C14.439 21.123 14.1268 21.429 14.1268 21.8115C14.1268 22.194 14.439 22.5 14.8293 22.5H21.4634C21.8537 22.5 22.1659 22.194 22.1659 21.8115C22.1659 21.429 21.8537 21.123 21.4634 21.123H20.9561V10.3743H23.2976C23.3366 10.3743 23.3756 10.3743 23.4146 10.3743C23.4537 10.3743 23.4537 10.3743 23.4927 10.3743C23.5317 10.3743 23.5317 10.3743 23.5707 10.3743C23.6098 10.3743 23.6098 10.3743 23.6488 10.3361C23.6878 10.3361 23.6878 10.2978 23.7268 10.2978L23.7659 10.2596L23.8049 10.2213L23.8439 10.1831L23.8829 10.1448C23.8829 10.0683 23.8829 10.0683 23.8829 10.0301ZM11.9805 2.8388C17.0146 2.8388 21.3463 5.47814 22.439 9.07377H1.52195C2.61463 5.43989 6.94634 2.8388 11.9805 2.8388ZM7.18049 21.123H4.44878V10.3743H7.18049V21.123ZM19.5902 21.123H16.8585V10.3743H19.5902V21.123Z" fill="white"/>
</svg>
