<svg width="96" height="20" viewBox="0 0 96 20" fill="none" xmlns="http://www.w3.org/2000/svg">
<g clip-path="url(#clip0_4_404)">
<g clip-path="url(#clip1_4_404)">
<path d="M17.1407 7.48942L11.665 6.62002L9.1843 1.27945C9.00279 0.90685 8.51875 0.90685 8.33724 1.27945L5.85655 6.65107L0.411125 7.48942C0.0178441 7.55152 -0.133418 8.07937 0.169106 8.35882L4.13216 12.5505L3.19434 18.419C3.13384 18.8226 3.52712 19.1642 3.89014 18.9158L8.82127 16.1523L13.7222 18.9158C14.0549 19.1021 14.4785 18.7916 14.3877 18.419L13.4499 12.5505L17.4129 8.35882C17.655 8.07937 17.5339 7.55152 17.1407 7.48942Z" fill="#52503B"/>
</g>
<g clip-path="url(#clip2_4_404)">
<path d="M36.6783 7.48942L31.2027 6.62002L28.722 1.27945C28.5404 0.90685 28.0564 0.90685 27.8749 1.27945L25.3942 6.65107L19.9488 7.48942C19.5555 7.55152 19.4042 8.07937 19.7068 8.35882L23.6698 12.5505L22.732 18.419C22.6715 18.8226 23.0648 19.1642 23.4278 18.9158L28.3589 16.1523L33.2598 18.9158C33.5926 19.1021 34.0161 18.7916 33.9254 18.419L32.9875 12.5505L36.9506 8.35882C37.1926 8.07937 37.0716 7.55152 36.6783 7.48942Z" fill="#52503B"/>
</g>
<g clip-path="url(#clip3_4_404)">
<path d="M56.216 7.48942L50.7404 6.62002L48.2597 1.27945C48.0782 0.90685 47.5941 0.90685 47.4126 1.27945L44.9319 6.65107L39.4865 7.48942C39.0932 7.55152 38.9419 8.07937 39.2445 8.35882L43.2075 12.5505L42.2697 18.419C42.2092 18.8226 42.6025 19.1642 42.9655 18.9158L47.8966 16.1523L52.7975 18.9158C53.1303 19.1021 53.5538 18.7916 53.4631 18.419L52.5252 12.5505L56.4883 8.35882C56.7303 8.07937 56.6093 7.55152 56.216 7.48942Z" fill="#52503B"/>
</g>
<g clip-path="url(#clip4_4_404)">
<path d="M75.7537 7.48942L70.278 6.62002L67.7973 1.27945C67.6158 0.90685 67.1318 0.90685 66.9503 1.27945L64.4696 6.65107L59.0241 7.48942C58.6309 7.55152 58.4796 8.07937 58.7821 8.35882L62.7452 12.5505L61.8074 18.419C61.7469 18.8226 62.1401 19.1642 62.5032 18.9158L67.4343 16.1523L72.3352 18.9158C72.668 19.1021 73.0915 18.7916 73.0007 18.419L72.0629 12.5505L76.026 8.35882C76.268 8.07937 76.147 7.55152 75.7537 7.48942Z" fill="#52503B"/>
</g>
<g clip-path="url(#clip5_4_404)">
<path d="M95.6223 7.78C95.5053 7.42 95.213 7.15 94.8623 7.09L89.981 6.31L87.7888 1.57C87.6134 1.21 87.2919 1 86.9119 1C86.5319 1 86.2104 1.21 86.0642 1.57L83.872 6.34L78.9615 7.15C78.6107 7.21 78.3184 7.48 78.2015 7.84C78.0846 8.2 78.1723 8.62 78.4353 8.89L81.9721 12.61L81.1537 17.8C81.0952 18.19 81.2414 18.58 81.5629 18.82C81.7383 18.94 81.9136 19 82.089 19C82.2352 19 82.4105 18.97 82.5275 18.88L86.9119 16.42L91.2671 18.85C91.5886 19.03 91.9686 19 92.2609 18.79C92.5824 18.55 92.7285 18.16 92.6701 17.77L91.8517 12.55L95.3884 8.83C95.6515 8.56 95.7392 8.14 95.6223 7.78ZM94.95 8.41L91.4424 12.13C91.3255 12.25 91.2671 12.46 91.2963 12.64L92.1147 17.86C92.144 18.07 92.0563 18.22 91.9393 18.28C91.8809 18.31 91.7347 18.4 91.5594 18.31L87.1749 15.88C86.9996 15.79 86.8242 15.79 86.6488 15.88L82.2644 18.34C82.089 18.43 81.9429 18.37 81.8844 18.31C81.7967 18.25 81.6798 18.07 81.709 17.89L82.5567 12.7C82.5859 12.52 82.5275 12.31 82.4105 12.19L78.8738 8.47C78.7276 8.32 78.7276 8.14 78.7569 8.02C78.8153 7.87 78.903 7.78 79.0492 7.75L83.9597 6.94C84.1351 6.91 84.3105 6.79 84.3689 6.61L86.5611 1.84C86.6488 1.69 86.7657 1.6 86.9119 1.6C87.058 1.6 87.1749 1.69 87.2334 1.84L89.4256 6.61C89.5133 6.79 89.6595 6.91 89.8348 6.94L94.7161 7.72C94.8623 7.75 94.9792 7.84 95.0084 7.99C95.0961 8.08 95.0961 8.29 94.95 8.41Z" fill="#52503B"/>
</g>
</g>
<defs>
<clipPath id="clip0_4_404">
<rect width="95.6884" height="20" fill="white"/>
</clipPath>
<clipPath id="clip1_4_404">
<rect width="17.5377" height="18" fill="white" transform="translate(0 1)"/>
</clipPath>
<clipPath id="clip2_4_404">
<rect width="17.5377" height="18" fill="white" transform="translate(19.5377 1)"/>
</clipPath>
<clipPath id="clip3_4_404">
<rect width="17.5377" height="18" fill="white" transform="translate(39.0753 1)"/>
</clipPath>
<clipPath id="clip4_4_404">
<rect width="17.5377" height="18" fill="white" transform="translate(58.613 1)"/>
</clipPath>
<clipPath id="clip5_4_404">
<rect width="17.5377" height="18" fill="white" transform="translate(78.1507 1)"/>
</clipPath>
</defs>
</svg>
